<?xml version="1.0" standalone="no"?>
<!DOCTYPE svg PUBLIC "-//W3C//DTD SVG 20010904//EN"
 "http://www.w3.org/TR/2001/REC-SVG-20010904/DTD/svg10.dtd">
<svg version="1.0" xmlns="http://www.w3.org/2000/svg"
 width="512.000000pt" height="512.000000pt" viewBox="0 0 512.000000 512.000000"
 preserveAspectRatio="xMidYMid meet">

<g transform="translate(0.000000,512.000000) scale(0.100000,-0.100000)"
fill="#000000" stroke="none">
<path d="M2400 5114 c-538 -50 -996 -260 -1366 -629 -507 -506 -727 -1197
-593 -1866 70 -354 238 -703 477 -993 93 -114 1579 -1602 1614 -1617 21 -9 35
-9 56 0 35 15 1522 1503 1614 1617 193 234 346 519 428 795 204 687 48 1385
-435 1947 -338 393 -801 649 -1315 727 -104 15 -393 27 -480 19z m430 -659
c384 -73 722 -284 952 -595 403 -545 393 -1294 -22 -1829 -263 -337 -643 -544
-1072 -583 -706 -65 -1376 391 -1582 1074 -47 157 -60 250 -60 438 0 188 13
281 60 438 176 586 691 1009 1309 1076 78 8 331 -3 415 -19z"/>
<path d="M1900 3903 c-137 -48 -220 -168 -220 -318 l0 -65 -95 0 c-88 0 -98
-2 -120 -25 l-25 -24 0 -231 0 -231 25 -24 c22 -23 32 -25 120 -25 l95 0 0
-295 0 -296 25 -24 c20 -21 34 -25 80 -25 l55 0 0 -96 c0 -128 13 -168 75
-229 102 -103 243 -101 338 5 54 60 67 103 67 224 l0 96 240 0 240 0 0 -96 c0
-128 13 -168 75 -229 102 -103 243 -101 338 5 54 60 67 103 67 224 l0 96 55 0
c46 0 60 4 80 25 l25 24 0 296 0 295 95 0 c88 0 98 2 120 25 l25 24 0 231 0
231 -25 24 c-22 23 -32 25 -118 25 l-94 0 -5 83 c-8 134 -70 231 -183 287
l-50 25 -630 2 c-554 2 -635 0 -675 -14z m1287 -159 c19 -9 46 -33 61 -52 l27
-35 3 -269 3 -268 -721 0 -721 0 3 268 3 269 27 35 c54 70 27 68 686 68 530 0
598 -2 629 -16z m-1507 -504 l0 -120 -40 0 -40 0 0 120 0 120 40 0 40 0 0
-120z m1840 0 l0 -120 -40 0 -40 0 0 120 0 120 40 0 40 0 0 -120z m-240 -520
l0 -240 -720 0 -720 0 0 240 0 240 720 0 720 0 0 -240z"/>
<path d="M2092 2864 c-18 -10 -45 -33 -60 -52 -35 -46 -38 -135 -6 -178 39
-53 71 -69 134 -69 63 0 95 16 134 69 29 39 29 133 0 172 -50 67 -135 92 -202
58z"/>
<path d="M2892 2864 c-18 -10 -45 -33 -60 -52 -35 -46 -38 -135 -6 -178 39
-53 71 -69 134 -69 63 0 95 16 134 69 29 39 29 133 0 172 -50 67 -135 92 -202
58z"/>
</g>
</svg>
